<?xml version="1.0" encoding="utf-8"?>
<!-- Generator: Adobe Illustrator 16.0.0, SVG Export Plug-In . SVG Version: 6.00 Build 0)  -->
<!DOCTYPE svg PUBLIC "-//W3C//DTD SVG 1.1//EN" "http://www.w3.org/Graphics/SVG/1.1/DTD/svg11.dtd">
<svg version="1.1" id="Layer_1" xmlns="http://www.w3.org/2000/svg" xmlns:xlink="http://www.w3.org/1999/xlink" x="0px" y="0px"
	 width="235px" height="46px" viewBox="0 0 235 46" enable-background="new 0 0 235 46" xml:space="preserve">
<g>
	<g>
		<path fill="#5681AA" d="M73.678,21.244c-0.438,0-0.913-0.021-1.422-0.066c-0.51-0.043-1.023-0.14-1.541-0.29
			c-0.518-0.149-1.028-0.369-1.528-0.658c-0.5-0.29-0.961-0.672-1.383-1.146c-0.438-0.491-0.781-1.027-1.027-1.606
			c-0.246-0.58-0.43-1.168-0.553-1.765c-0.123-0.597-0.203-1.19-0.237-1.778c-0.036-0.588-0.053-1.137-0.053-1.646
			c0-0.649,0.021-1.304,0.066-1.962c0.043-0.659,0.127-1.299,0.25-1.923c0.123-0.623,0.303-1.212,0.541-1.764
			c0.237-0.553,0.548-1.058,0.935-1.515c0.457-0.544,0.965-0.97,1.527-1.277c0.562-0.308,1.124-0.541,1.687-0.698
			c0.562-0.158,1.088-0.254,1.58-0.29c0.492-0.036,0.905-0.053,1.238-0.053h7.401v2.766H75.39c-0.509,0-1.001,0.013-1.475,0.04
			c-0.474,0.026-0.917,0.101-1.33,0.224c-0.413,0.123-0.791,0.299-1.133,0.527c-0.342,0.229-0.646,0.536-0.909,0.921
			c-0.282,0.405-0.523,0.988-0.725,1.752c-0.202,0.764-0.303,1.831-0.303,3.2c0,0.685,0.026,1.277,0.079,1.778
			c0.053,0.5,0.123,0.926,0.21,1.277c0.088,0.352,0.185,0.642,0.29,0.87c0.105,0.229,0.202,0.413,0.29,0.553
			c0.474,0.72,1.124,1.194,1.949,1.423c0.826,0.228,1.782,0.342,2.871,0.342h6.243v2.766H73.678z"/>
		<path fill="#5681AA" d="M83.818,2.807h3.477v18.438h-3.477V2.807z M97.068,21.244l-7.586-7.085
			c-0.457-0.421-0.764-0.847-0.922-1.277c-0.158-0.43-0.237-0.803-0.237-1.12c0-0.351,0.088-0.72,0.264-1.106
			c0.175-0.386,0.386-0.702,0.632-0.948l6.98-6.901h4.294l-7.955,7.559c-0.21,0.193-0.408,0.392-0.593,0.593
			c-0.184,0.202-0.276,0.461-0.276,0.777c0,0.404,0.118,0.737,0.356,1.001c0.237,0.263,0.478,0.51,0.724,0.737l8.719,7.77H97.068z"
			/>
	</g>
	<g>
		<path fill="#5681AA" d="M14.739,44.708c-0.439,0-0.913-0.023-1.423-0.067c-0.509-0.043-1.023-0.139-1.541-0.288
			s-1.027-0.369-1.528-0.659c-0.5-0.289-0.961-0.671-1.382-1.146c-0.439-0.491-0.782-1.027-1.027-1.606
			c-0.247-0.58-0.431-1.168-0.553-1.765c-0.124-0.598-0.203-1.19-0.238-1.778s-0.052-1.137-0.052-1.646
			c0-0.65,0.021-1.304,0.066-1.963c0.043-0.658,0.127-1.299,0.25-1.922c0.123-0.623,0.303-1.211,0.541-1.766
			c0.237-0.553,0.548-1.057,0.935-1.514c0.457-0.545,0.966-0.97,1.528-1.277c0.562-0.308,1.124-0.54,1.686-0.699
			c0.562-0.157,1.088-0.254,1.58-0.289s0.905-0.052,1.239-0.052h7.401v2.766h-5.768c-0.51,0-1.001,0.013-1.476,0.038
			c-0.474,0.027-0.917,0.102-1.33,0.225c-0.413,0.122-0.791,0.3-1.133,0.526c-0.343,0.229-0.645,0.536-0.909,0.923
			c-0.281,0.403-0.523,0.987-0.725,1.751c-0.202,0.765-0.303,1.831-0.303,3.2c0,0.686,0.026,1.278,0.079,1.778
			c0.053,0.501,0.124,0.926,0.211,1.276c0.088,0.353,0.185,0.643,0.291,0.87c0.105,0.228,0.201,0.412,0.289,0.554
			c0.474,0.721,1.125,1.193,1.95,1.423c0.825,0.228,1.783,0.34,2.871,0.34h6.242v2.768H14.739z"/>
		<path fill="#5681AA" d="M44.582,44.708h-3.477v-8.113h-9.587v8.113h-3.477V26.271h3.477v7.56h9.587v-7.56h3.477V44.708z"/>
		<path fill="#5681AA" d="M55.486,28.141c0.333-0.773,0.715-1.313,1.146-1.621c0.43-0.307,1.058-0.46,1.883-0.46
			c0.79,0,1.409,0.153,1.857,0.46c0.448,0.308,0.838,0.848,1.172,1.621l6.954,16.567h-3.661l-1.896-4.663h-8.876l-1.87,4.663h-3.662
			L55.486,28.141z M54.959,37.569h7.085l-3.002-7.506c-0.053-0.141-0.123-0.304-0.211-0.488s-0.193-0.276-0.316-0.276
			c-0.123,0-0.228,0.092-0.316,0.276c-0.088,0.185-0.158,0.348-0.211,0.488L54.959,37.569z"/>
		<path fill="#5681AA" d="M72.449,44.708V26.271h3.477v18.438H72.449z"/>
		<path fill="#5681AA" d="M99.895,42.31c0,0.933-0.269,1.6-0.804,2.004c-0.536,0.402-1.182,0.606-1.936,0.606
			c-0.562,0-1.097-0.099-1.606-0.291c-0.51-0.192-0.966-0.615-1.37-1.266l-7.77-12.273c-0.141-0.192-0.237-0.316-0.291-0.368
			c-0.052-0.053-0.096-0.08-0.131-0.08c-0.07,0-0.149,0.04-0.237,0.119c-0.088,0.079-0.132,0.216-0.132,0.408v13.539h-3.372V28.562
			c0-0.791,0.25-1.404,0.751-1.844c0.5-0.438,1.189-0.658,2.068-0.658c0.825,0,1.457,0.141,1.896,0.42
			c0.438,0.282,0.781,0.624,1.027,1.028l7.823,12.354c0.07,0.087,0.126,0.184,0.171,0.29c0.043,0.104,0.126,0.157,0.25,0.157
			c0.141,0,0.224-0.058,0.25-0.171c0.027-0.114,0.04-0.206,0.04-0.276V26.271h3.372V42.31z"/>
	</g>
	<path fill="#BBBDBF" d="M138.986,2.093c-3.261,0-3.797,2.899-3.797,2.899v4.35l0,0v11.181h-21.534V4.992
		c0,0-0.451-2.899-4.013-2.899c-3.26,0-3.796,2.899-3.796,2.899v23.664v9.054v4.507c0,0,0.537,2.899,3.796,2.899
		c3.562,0,4.013-2.899,4.013-2.899v-4.507v-9.05v-1.923h21.534v11.13l0,0v4.35c0,0,0.536,2.899,3.797,2.899
		c3.562,0,4.012-2.899,4.012-2.899v-4.35v-0.76v-10.37v-4.488V10.102v-0.76v-4.35C142.998,4.992,142.548,2.093,138.986,2.093z"/>
	<path fill="#BBBDBF" d="M182.055,2.093c-3.259,0-3.795,2.899-3.795,2.899v5.8h-0.002v18.546c0,0.514-0.01,1.085-0.029,1.717
		c-0.021,0.631-0.1,1.262-0.236,1.893c-0.14,0.63-0.336,1.264-0.593,1.894c-0.255,0.63-0.62,1.204-1.094,1.715
		c-0.553,0.592-1.183,1.066-1.894,1.421c-0.71,0.354-1.439,0.62-2.188,0.797c-0.751,0.179-1.489,0.297-2.219,0.356
		c-0.732,0.059-1.372,0.089-1.925,0.089c-0.592,0-1.252-0.03-1.981-0.089c-0.729-0.06-1.459-0.178-2.189-0.356
		c-0.729-0.177-1.439-0.442-2.129-0.797s-1.312-0.829-1.863-1.421c-0.985-1.064-1.568-2.247-1.746-3.549
		c-0.177-1.301-0.267-2.524-0.267-3.669V10.792l0,0v-5.8c0,0-0.449-2.899-4.012-2.899c-3.26,0-3.796,2.899-3.796,2.899v5.8v7.761
		v11.85c0,1.776,0.206,3.581,0.62,5.412c0.415,1.836,1.41,3.563,2.988,5.18c1.024,1.064,2.179,1.894,3.46,2.484
		c1.282,0.592,2.575,1.036,3.878,1.332c1.3,0.295,2.562,0.473,3.785,0.532c1.221,0.06,2.307,0.089,3.252,0.089
		c0.947,0,2.032-0.029,3.254-0.089c1.223-0.06,2.486-0.237,3.788-0.532c1.303-0.296,2.593-0.74,3.876-1.332
		c1.278-0.591,2.433-1.42,3.46-2.484c1.577-1.617,2.574-3.344,2.988-5.18c0.413-1.831,0.621-3.636,0.621-5.412V18.548v-7.757v-5.8
		C186.068,4.992,185.617,2.093,182.055,2.093z"/>
	<path fill="#BBBDBF" d="M219.2,2.176c0.551,0,1.152,0.021,1.803,0.063c0.65,0.04,1.313,0.152,1.984,0.336
		c0.67,0.182,1.318,0.448,1.952,0.794c0.628,0.346,1.221,0.805,1.773,1.375c0.593,0.611,1.056,1.304,1.391,2.078
		c0.335,0.774,0.591,1.568,0.769,2.382c0.179,0.815,0.295,1.63,0.354,2.446c0.061,0.814,0.092,1.567,0.092,2.259
		c0,1.184-0.102,2.354-0.298,3.516c-0.197,1.161-0.749,2.313-1.655,3.453c-0.592,0.733-1.193,1.265-1.806,1.588
		c-0.611,0.328-1.312,0.531-2.101,0.611v0.246c0.985,0.081,1.863,0.335,2.634,0.763c0.77,0.428,1.41,0.928,1.922,1.498
		c0.474,0.57,0.85,1.172,1.124,1.802c0.276,0.634,0.475,1.283,0.593,1.957c0.117,0.671,0.188,1.335,0.209,1.984
		c0.017,0.653,0.026,1.284,0.026,1.896c0,1.426-0.099,2.934-0.295,4.523c-0.197,1.587-0.886,3.077-2.07,4.461
		c-0.593,0.692-1.205,1.222-1.834,1.588c-0.63,0.369-1.263,0.643-1.892,0.826c-0.632,0.183-1.274,0.285-1.927,0.306
		c-0.649,0.022-1.291,0.029-1.919,0.029h-19.821c-1.025,0-2.011-0.04-2.959-0.122c-0.944-0.08-1.834-0.61-2.661-1.59
		c-0.198-0.242-0.483-0.721-0.859-1.435c-0.374-0.712-0.561-1.681-0.561-2.904V8.35c0-0.814,0.107-1.609,0.324-2.384
		c0.219-0.773,0.543-1.445,0.978-2.018c0.629-0.773,1.351-1.262,2.159-1.467c0.808-0.203,1.547-0.306,2.219-0.306H219.2z
		 M200.978,20.146h15.145c0.789,0,1.558-0.062,2.309-0.185c0.747-0.121,1.399-0.569,1.952-1.343
		c0.158-0.204,0.345-0.612,0.561-1.224c0.218-0.611,0.326-1.649,0.326-3.116c0-0.571-0.06-1.314-0.177-2.23
		c-0.119-0.917-0.514-1.702-1.184-2.353c-0.553-0.571-1.163-0.896-1.833-0.978c-0.673-0.081-1.342-0.122-2.013-0.122h-12.779
		c-0.315,0-0.632,0.01-0.946,0.031c-0.315,0.02-0.592,0.173-0.829,0.457c-0.234,0.286-0.385,0.612-0.443,0.978
		c-0.059,0.367-0.088,0.673-0.088,0.917V20.146z M200.978,35.361c0,0.694,0.038,1.233,0.119,1.621
		c0.078,0.388,0.196,0.683,0.354,0.886c0.314,0.366,0.739,0.57,1.271,0.611s0.957,0.061,1.273,0.061h12.306
		c0.629,0,1.398-0.07,2.307-0.214c0.906-0.142,1.656-0.579,2.249-1.313c0.435-0.571,0.719-1.263,0.858-2.079
		c0.138-0.815,0.207-1.568,0.207-2.26c0-0.613-0.05-1.347-0.148-2.201c-0.101-0.855-0.347-1.567-0.74-2.14
		c-0.236-0.325-0.681-0.703-1.332-1.131c-0.65-0.427-1.606-0.642-2.868-0.642h-15.855V35.361z"/>
	<g>
		<path fill="#5681AA" d="M19.504,2.807c0.246,0,0.514,0.009,0.804,0.026c0.289,0.018,0.583,0.066,0.882,0.146
			c0.299,0.078,0.588,0.193,0.869,0.342c0.281,0.15,0.544,0.347,0.79,0.593c0.264,0.264,0.47,0.563,0.619,0.896
			c0.149,0.333,0.264,0.676,0.342,1.027c0.079,0.352,0.132,0.703,0.158,1.054c0.027,0.352,0.04,0.676,0.04,0.975
			c0,0.509-0.044,1.014-0.132,1.515c-0.088,0.5-0.333,0.996-0.737,1.488c-0.263,0.315-0.532,0.544-0.804,0.684
			c-0.271,0.141-0.583,0.229-0.935,0.264v0.105c0.439,0.036,0.83,0.145,1.172,0.329c0.342,0.185,0.628,0.4,0.856,0.646
			c0.21,0.246,0.377,0.505,0.5,0.777c0.122,0.273,0.21,0.553,0.263,0.843c0.052,0.29,0.083,0.576,0.092,0.856
			c0.009,0.281,0.013,0.553,0.013,0.817c0,0.615-0.044,1.264-0.132,1.949c-0.087,0.685-0.395,1.326-0.921,1.923
			c-0.264,0.298-0.536,0.527-0.816,0.685c-0.281,0.158-0.563,0.277-0.843,0.356c-0.281,0.079-0.566,0.123-0.856,0.131
			c-0.29,0.009-0.575,0.013-0.856,0.013h-8.824c-0.457,0-0.895-0.017-1.316-0.053c-0.422-0.035-0.817-0.263-1.186-0.685
			c-0.088-0.105-0.215-0.312-0.382-0.619c-0.167-0.307-0.25-0.725-0.25-1.251V5.467c0-0.352,0.048-0.694,0.145-1.028
			C8.156,4.106,8.301,3.816,8.495,3.57c0.28-0.333,0.601-0.544,0.961-0.632c0.36-0.087,0.689-0.131,0.987-0.131H19.504z
			 M11.392,10.55h6.743c0.351,0,0.693-0.026,1.027-0.079c0.333-0.053,0.623-0.246,0.869-0.58c0.07-0.087,0.154-0.263,0.25-0.527
			c0.097-0.263,0.145-0.71,0.145-1.343c0-0.246-0.026-0.566-0.079-0.961c-0.052-0.395-0.229-0.733-0.526-1.014
			c-0.247-0.246-0.519-0.386-0.817-0.422c-0.299-0.035-0.597-0.052-0.896-0.052h-5.689c-0.141,0-0.281,0.005-0.421,0.013
			c-0.141,0.009-0.264,0.075-0.369,0.197c-0.105,0.124-0.171,0.264-0.198,0.422c-0.026,0.158-0.04,0.289-0.04,0.395V10.55z
			 M11.392,17.109c0,0.298,0.017,0.531,0.053,0.698c0.035,0.167,0.088,0.295,0.158,0.382c0.141,0.158,0.33,0.246,0.567,0.263
			c0.237,0.018,0.425,0.026,0.566,0.026h5.478c0.281,0,0.624-0.03,1.028-0.092c0.403-0.061,0.737-0.25,1-0.566
			c0.193-0.246,0.32-0.543,0.382-0.895c0.061-0.351,0.092-0.676,0.092-0.975c0-0.264-0.022-0.579-0.065-0.948
			c-0.044-0.369-0.154-0.676-0.33-0.922c-0.105-0.14-0.303-0.303-0.593-0.487c-0.29-0.185-0.715-0.276-1.277-0.276h-7.059V17.109z"
			/>
		<path fill="#5681AA" d="M29.303,21.244c-0.299,0-0.606-0.035-0.922-0.105c-0.316-0.07-0.58-0.193-0.79-0.369
			c-0.141-0.123-0.286-0.307-0.435-0.553c-0.149-0.246-0.224-0.57-0.224-0.975V2.807h3.477v14.671c0,0.105,0.004,0.232,0.013,0.382
			c0.009,0.149,0.083,0.285,0.225,0.408c0.052,0.036,0.141,0.079,0.264,0.132c0.122,0.052,0.324,0.078,0.605,0.078H41.63v2.766
			H29.303z"/>
	</g>
	<g>
		<g>
			<g>
				<path fill="#5681AA" d="M46.264,11.784c0.155,0.137,0.307,0.292,0.482,0.435c0.066,0.055,0.135,0.111,0.205,0.168
					c0.122-0.145,0.301-0.239,0.506-0.239c0.124,0,0.238,0.036,0.337,0.095c0.168-0.194,0.345-0.387,0.528-0.579
					c0.19-0.19,0.384-0.382,0.585-0.57c0.057-0.051,0.113-0.103,0.169-0.153c-0.039-0.104-0.061-0.214-0.061-0.33
					c0-0.521,0.421-0.94,0.94-0.94c0.005,0,0.01,0,0.014,0c-0.001-0.013-0.003-0.027-0.004-0.039
					c-0.023-0.286-0.048-0.564-0.057-0.837c-0.006-0.197-0.011-0.39-0.011-0.579c-0.008,0-0.019,0.004-0.027,0.004
					c-0.213,0-0.396-0.131-0.473-0.317c-0.017,0.002-0.034,0.005-0.05,0.008c-0.111,0.017-0.221,0.036-0.328,0.054
					c-0.107,0.022-0.213,0.046-0.316,0.067c-0.208,0.041-0.404,0.097-0.592,0.149c-0.192,0.047-0.366,0.119-0.537,0.172
					c-0.168,0.06-0.325,0.129-0.473,0.187c-0.142,0.072-0.277,0.136-0.399,0.2c-0.119,0.072-0.227,0.138-0.325,0.197
					c-0.011,0.009-0.021,0.015-0.032,0.023c-0.354,0.631-0.624,1.314-0.793,2.037c0.09,0.118,0.199,0.236,0.308,0.367
					C45.98,11.501,46.121,11.636,46.264,11.784z"/>
				<path fill="#5681AA" d="M50.904,9.519c0.234-0.166,0.482-0.313,0.72-0.462c0.242-0.147,0.494-0.287,0.738-0.424
					c0.251-0.13,0.495-0.266,0.749-0.378c0.125-0.059,0.249-0.117,0.373-0.174c0.125-0.053,0.25-0.105,0.374-0.157
					c0.061-0.027,0.123-0.051,0.186-0.075c-0.072-0.008-0.145-0.016-0.216-0.022c-0.262-0.029-0.522-0.055-0.782-0.067
					c-0.131-0.008-0.261-0.016-0.39-0.024c-0.13-0.005-0.26-0.007-0.389-0.011c-0.517-0.016-1.024,0-1.515,0.027
					c-0.127,0.01-0.253,0.021-0.377,0.033c-0.027,0.179-0.146,0.328-0.309,0.396c0.006,0.197,0.017,0.4,0.029,0.605
					c0.015,0.269,0.048,0.544,0.078,0.823c0.005,0.031,0.009,0.063,0.014,0.093c0.101,0.025,0.196,0.067,0.281,0.122
					c0.027-0.02,0.055-0.042,0.083-0.062L50.904,9.519z"/>
				<path fill="#5681AA" d="M47.072,8.482c0.148-0.064,0.302-0.139,0.47-0.205c0.17-0.061,0.347-0.136,0.538-0.188
					c0.19-0.056,0.387-0.119,0.597-0.164c0.104-0.025,0.21-0.049,0.317-0.076c0.107-0.021,0.218-0.042,0.33-0.063
					c0.013-0.002,0.026-0.003,0.039-0.007c-0.003-0.024-0.007-0.048-0.007-0.075c0-0.283,0.23-0.513,0.512-0.513
					c0.022,0,0.042,0.005,0.064,0.008c0.014-0.215,0.045-0.42,0.067-0.617c0.034-0.214,0.073-0.416,0.11-0.604
					c0.04-0.155,0.075-0.299,0.112-0.435C48.6,6.202,47.25,7.389,46.382,8.892c0.09-0.06,0.187-0.123,0.293-0.192
					C46.795,8.63,46.93,8.561,47.072,8.482z"/>
				<path fill="#5681AA" d="M57.843,7.136C57.671,7.152,57.49,7.173,57.3,7.197c-0.189,0.036-0.391,0.057-0.596,0.105
					c-0.206,0.044-0.421,0.09-0.639,0.153c-0.111,0.028-0.223,0.06-0.335,0.094c0.021,0.07,0.035,0.144,0.035,0.22
					c0,0.063-0.009,0.123-0.022,0.181c0.394,0.083,0.78,0.172,1.15,0.28c0.479,0.129,0.932,0.287,1.356,0.451
					c0.209,0.086,0.417,0.165,0.609,0.258c0.097,0.043,0.193,0.088,0.287,0.131c0.091,0.047,0.182,0.094,0.27,0.139
					c0.354,0.179,0.661,0.376,0.928,0.556c0.013,0.01,0.025,0.02,0.039,0.03c-0.423-1.019-1.055-1.926-1.842-2.674
					c-0.07-0.001-0.142-0.001-0.217-0.004C58.173,7.115,58.013,7.13,57.843,7.136z"/>
				<path fill="#5681AA" d="M50.123,6.599c-0.011,0.203-0.042,0.414-0.048,0.638c0.161,0.07,0.276,0.22,0.301,0.401
					c0.123-0.013,0.243-0.024,0.367-0.035c0.495-0.03,1.007-0.051,1.526-0.039c0.13,0.003,0.261,0.005,0.393,0.008
					c0.13,0.007,0.261,0.014,0.393,0.021c0.263,0.012,0.526,0.037,0.79,0.062c0.116,0.011,0.232,0.025,0.347,0.039
					c0.039-0.399,0.373-0.714,0.784-0.714c0.271,0,0.511,0.137,0.653,0.347C55.99,7.231,56.339,7.16,56.67,7.11
					c0.211-0.039,0.417-0.052,0.611-0.076c0.196-0.013,0.381-0.021,0.556-0.025c0.174,0.004,0.337,0.003,0.487,0.013
					c0.042,0.004,0.083,0.007,0.124,0.013c-1.392-1.282-3.25-2.063-5.29-2.063c-1.006,0-1.968,0.193-2.851,0.539
					c-0.036,0.149-0.066,0.313-0.103,0.487C50.177,6.186,50.146,6.387,50.123,6.599z"/>
				<path fill="#5681AA" d="M60.422,9.897c-0.038-0.027-0.076-0.053-0.116-0.08c-0.271-0.168-0.583-0.352-0.937-0.523
					c-0.088-0.042-0.179-0.086-0.27-0.132c-0.094-0.04-0.19-0.083-0.287-0.124c-0.193-0.087-0.401-0.161-0.61-0.242
					c-0.423-0.151-0.875-0.298-1.35-0.424c-0.375-0.106-0.766-0.192-1.164-0.271c-0.126,0.271-0.398,0.459-0.715,0.459
					c-0.326,0-0.605-0.198-0.727-0.479c-0.091,0.036-0.183,0.074-0.273,0.117c-0.486,0.205-0.966,0.463-1.455,0.722
					c-0.24,0.137-0.479,0.273-0.718,0.42c-0.242,0.153-0.479,0.297-0.707,0.46l-0.35,0.235c-0.011,0.008-0.02,0.016-0.03,0.022
					c0.112,0.155,0.18,0.346,0.18,0.551c0,0.326-0.167,0.613-0.419,0.781c0.057,0.279,0.133,0.557,0.202,0.84
					c0.084,0.296,0.166,0.592,0.261,0.891c0.1,0.3,0.191,0.597,0.304,0.889l0.112,0.309c0.064-0.022,0.131-0.035,0.203-0.035
					c0.366,0,0.662,0.296,0.662,0.663c0,0.041-0.004,0.08-0.011,0.118c0.135,0.042,0.271,0.083,0.41,0.118l0.434,0.125l0.438,0.106
					c0.292,0.074,0.585,0.127,0.876,0.183c0.291,0.061,0.583,0.09,0.871,0.136c0.289,0.031,0.574,0.063,0.855,0.083
					c0.281,0.012,0.559,0.035,0.83,0.034c0.135,0.001,0.27,0.003,0.403,0.006c0.133-0.005,0.263-0.01,0.393-0.015
					c0.257-0.008,0.505-0.027,0.744-0.055c0.029-0.243,0.233-0.432,0.484-0.432c0.196,0,0.364,0.116,0.442,0.282
					c0.14-0.03,0.278-0.061,0.408-0.094c0.196-0.063,0.388-0.104,0.558-0.172c0.073-0.026,0.143-0.053,0.21-0.08
					c0.265-0.785,0.411-1.626,0.411-2.499C60.977,11.767,60.778,10.792,60.422,9.897z"/>
				<path fill="#5681AA" d="M46.27,14.547c0.084-0.176,0.177-0.36,0.279-0.551c0.134-0.23,0.281-0.471,0.444-0.713
					c-0.123-0.121-0.199-0.288-0.199-0.474c0-0.105,0.027-0.205,0.072-0.295c-0.074-0.063-0.146-0.126-0.215-0.188
					c-0.173-0.151-0.325-0.31-0.475-0.456c-0.138-0.156-0.273-0.301-0.39-0.445c-0.092-0.12-0.179-0.228-0.257-0.336
					c-0.122,0.547-0.187,1.115-0.187,1.699c0,1.016,0.195,1.986,0.548,2.877c0.01-0.044,0.021-0.087,0.031-0.135
					c0.033-0.148,0.091-0.301,0.142-0.468C46.119,14.898,46.196,14.729,46.27,14.547z"/>
				<path fill="#5681AA" d="M59.832,15.657c-0.128,0.041-0.263,0.074-0.4,0.108c0.004,0.025,0.008,0.051,0.008,0.079
					c0,0.271-0.221,0.491-0.492,0.491c-0.235,0-0.431-0.165-0.479-0.387c-0.238,0.034-0.484,0.062-0.739,0.078
					c-0.131,0.008-0.265,0.016-0.398,0.025c-0.135,0.001-0.271,0.004-0.409,0.005c-0.276,0.013-0.557-0.012-0.844-0.022
					c-0.285-0.016-0.575-0.046-0.868-0.075c-0.292-0.044-0.59-0.071-0.885-0.13c-0.295-0.053-0.595-0.104-0.891-0.178l-0.445-0.101
					l-0.442-0.122c-0.145-0.038-0.289-0.083-0.433-0.129c-0.063,0.101-0.154,0.181-0.26,0.235c0.031,0.068,0.062,0.136,0.093,0.205
					c0.122,0.283,0.27,0.55,0.403,0.821c0.141,0.267,0.289,0.526,0.434,0.781c0.307,0.5,0.606,0.983,0.93,1.411
					c0.314,0.436,0.651,0.817,0.973,1.16c0.152,0.159,0.309,0.299,0.454,0.441c2.513-0.656,4.532-2.534,5.389-4.958
					c-0.046,0.021-0.091,0.04-0.139,0.061C60.221,15.535,60.028,15.584,59.832,15.657z"/>
				<path fill="#5681AA" d="M48.593,13.507c0.241,0.125,0.476,0.274,0.731,0.396c0.126,0.064,0.252,0.129,0.381,0.193
					c0.13,0.06,0.262,0.12,0.393,0.181c0.263,0.125,0.539,0.228,0.813,0.34c0.019,0.009,0.041,0.016,0.061,0.024
					c0.04-0.077,0.093-0.144,0.159-0.199l-0.129-0.346c-0.114-0.296-0.203-0.603-0.3-0.899c-0.091-0.301-0.174-0.607-0.256-0.907
					c-0.062-0.267-0.131-0.529-0.185-0.793c-0.096,0.034-0.199,0.052-0.308,0.052c-0.285,0-0.54-0.128-0.712-0.327
					c-0.041,0.035-0.081,0.07-0.122,0.104c-0.201,0.183-0.396,0.365-0.585,0.547c-0.184,0.188-0.365,0.374-0.535,0.559
					c0.074,0.106,0.118,0.236,0.118,0.376c0,0.127-0.038,0.244-0.1,0.345C48.204,13.274,48.397,13.387,48.593,13.507z"/>
				<path fill="#5681AA" d="M53.566,18.865c-0.341-0.425-0.662-0.902-0.973-1.409c-0.149-0.257-0.301-0.518-0.446-0.787
					c-0.137-0.273-0.29-0.543-0.416-0.829c-0.037-0.08-0.073-0.159-0.11-0.239c-0.021,0.002-0.042,0.007-0.063,0.007
					c-0.366,0-0.662-0.297-0.662-0.662c0-0.026,0.004-0.05,0.007-0.075c-0.026-0.01-0.054-0.021-0.08-0.031
					c-0.277-0.118-0.555-0.225-0.82-0.354c-0.133-0.063-0.266-0.125-0.397-0.187c-0.129-0.066-0.257-0.133-0.385-0.2
					c-0.128-0.063-0.253-0.131-0.374-0.203c-0.121-0.07-0.242-0.14-0.361-0.209c-0.201-0.132-0.401-0.255-0.59-0.387
					c-0.117,0.106-0.27,0.172-0.439,0.172c-0.096,0-0.186-0.021-0.268-0.058c-0.171,0.231-0.328,0.46-0.47,0.681
					c-0.111,0.179-0.206,0.357-0.301,0.522c-0.083,0.173-0.169,0.334-0.236,0.492c-0.06,0.16-0.129,0.306-0.171,0.448
					c-0.023,0.084-0.047,0.161-0.069,0.237c1.178,2.826,3.966,4.813,7.217,4.813c0.633,0,1.247-0.078,1.835-0.219
					c-0.134-0.119-0.271-0.241-0.409-0.375C54.25,19.677,53.897,19.299,53.566,18.865z"/>
			</g>
		</g>
		<g>
			<path fill="#5681AA" d="M53.159,4.04c4.824,0,8.748,3.925,8.748,8.75c0,4.824-3.924,8.748-8.748,8.748
				c-4.825,0-8.75-3.924-8.75-8.748C44.41,7.964,48.334,4.04,53.159,4.04 M53.159,2.449c-5.711,0-10.34,4.63-10.34,10.34
				s4.629,10.339,10.34,10.339c5.709,0,10.339-4.628,10.339-10.339S58.869,2.449,53.159,2.449L53.159,2.449z"/>
		</g>
	</g>
</g>
</svg>
